<svg width="139" height="100" viewBox="0 0 139 100" fill="none" xmlns="http://www.w3.org/2000/svg">
<path d="M32.1898 48.1666H20.5369L20.1193 48.4953V58.6653H23.3251V54.837L23.619 54.5515H32.1898C34.3572 54.5515 35.3544 53.9777 35.3544 52.5067V50.1683C35.3544 48.7378 34.3572 48.1666 32.1898 48.1666ZM32.1898 51.9248C32.1898 52.6199 31.731 52.733 30.6899 52.733H23.674L23.3388 52.4474V50.2922L23.6328 50.0066H30.7119C31.7118 50.0066 32.2118 50.1279 32.2118 50.8149V51.9167L32.1898 51.9248Z" fill="white"/>
<path d="M41.277 50.0875L44.068 54.0908L43.9004 54.4599H37.736L36.1537 56.378H45.3179L45.9826 56.7471L47.4001 58.6653H51.1059L42.9856 48.0454" fill="white"/>
<path d="M78.0543 56.6232V53.7649L78.3894 53.4793H84.595V51.6824H74.7661V58.6653H89.2595V56.8684H78.4307" fill="white"/>
<path d="M89.3858 48.1693H74.7661V50.1306H89.3858V48.1693Z" fill="white"/>
<path d="M58.4816 50.0471H70.2691C70.1015 48.5761 69.1428 48.1613 66.8106 48.1613H58.3552C55.6906 48.1613 54.8555 48.6516 54.8555 50.6532V56.2137C54.8555 58.175 55.6796 58.7057 58.3552 58.7057H66.8023C69.1758 58.7057 70.0988 58.2558 70.1757 56.7444H58.4733L58.1382 56.4185V50.2922" fill="white"/>
<path d="M12.2051 52.2508H3.66729L3.41731 51.9652V50.1683L3.66729 49.9636H15.2048L15.3697 49.5972C14.9961 48.6165 13.9549 48.1262 12.0732 48.1262H4.04089C1.37626 48.1262 0.543913 48.6165 0.543913 50.6182V51.8036C0.543913 53.7621 1.36802 54.2956 4.04089 54.2956H12.5814L12.8314 54.5407V56.4265L12.6226 56.7121H0.293933C0.293933 56.7121 0 56.8764 0 56.9168C0.208775 58.307 1.16749 58.6734 3.45852 58.6734H12.2051C14.8697 58.6734 15.746 58.183 15.746 56.1814V54.7428C15.746 52.7842 14.8697 52.2508 12.2051 52.2508Z" fill="white"/>
<path d="M98.591 48.1262H93.759L93.509 48.6165L98.841 52.4555C99.8409 51.8844 100.964 51.3133 102.137 50.7394" fill="white"/>
<path d="M102.923 55.3166L107.629 58.6653H112.461L112.67 58.2154L105.673 53.191C104.755 53.8861 103.797 54.5811 102.926 55.3166" fill="white"/>
<path d="M97.8824 58.6653H93.5091L93.1355 58.0941C96.0913 55.2735 109.343 43.277 138.118 42C138.118 42 114.002 42.8082 97.8824 58.6653" fill="#B2B0B2"/>
<rect x="61" y="63" width="47" height="6" fill="#D9D9D9"/>
</svg>
